# Blender 4.1.1
# www.blender.org
o Cube.002
v 0.173807 0.936094 -0.049951
v 0.173807 0.936094 0.049951
v 0.060771 0.978715 -0.059269
v 0.060771 0.978715 -0.059269
v 0.060771 0.978715 0.059269
v 0.152678 1.059428 -0.000000
v -0.173807 0.936094 -0.049951
v -0.173807 0.936094 0.049951
v -0.060771 0.978715 -0.059269
v -0.060771 0.978715 -0.059269
v -0.060771 0.978715 0.059269
v -0.152678 1.059429 -0.000000
vn -0.2931 0.7598 -0.5803
vn -0.2931 0.7599 0.5803
vn 0.3450 0.9386 -0.0000
vn 0.7688 0.3488 -0.5359
vn -0.2931 0.7599 -0.5803
vn 0.7688 0.3488 0.5359
vn 0.2931 0.7598 -0.5803
vn -0.3450 0.9386 -0.0000
vn 0.2931 0.7599 0.5803
vn -0.7688 0.3488 -0.5359
vn 0.2931 0.7599 -0.5802
vn -0.7688 0.3488 0.5359
vt 0.456540 0.544495
vt 0.457681 0.544802
vt 0.456794 0.545826
vt 0.457700 0.546819
vt 0.456540 0.547158
vt 0.458134 0.545922
vt 0.461858 0.535136
vt 0.462112 0.533805
vt 0.463000 0.534829
vt 0.463018 0.532812
vt 0.461858 0.532473
vt 0.463452 0.533709
s 1
f 4/1/1 5/2/2 6/3/3
f 1/4/4 3/5/5 6/3/3
f 2/6/6 1/4/4 6/3/3
f 5/2/2 2/6/6 6/3/3
f 9/7/7 12/8/8 11/9/9
f 7/10/10 12/8/8 10/11/11
f 8/12/12 12/8/8 7/10/10
f 11/9/9 12/8/8 8/12/12
